/* XPM */
static char * robocut_xpm[] = {
"32 32 68 1",
" 	c None",
".	c #3D4083",
"+	c #ECEDF2",
"@	c #525590",
"#	c #E0E1EC",
"$	c #606299",
"%	c #CBCBDD",
"&	c #777AA8",
"*	c #444788",
"=	c #1B206F",
"-	c #121769",
";	c #E7E8F0",
">	c #2D327A",
",	c #DADBE7",
"'	c #3C4083",
")	c #BFC0D6",
"!	c #595D96",
"~	c #1D2270",
"{	c #14196A",
"]	c #E8E8F0",
"^	c #2F347C",
"/	c #DADBE8",
"(	c #3E4285",
"_	c #C0C1D7",
":	c #5B5E97",
"<	c #E9EAF1",
"[	c #30347C",
"}	c #DCDCE8",
"|	c #3F4385",
"1	c #C1C2D7",
"2	c #5C6098",
"3	c #1A1F6E",
"4	c #797BAA",
"5	c #1E2371",
"6	c #7679A9",
"7	c #252975",
"8	c #686B9F",
"9	c #30357C",
"0	c #1C2170",
"a	c #000000",
"b	c #323232",
"c	c #333333",
"d	c #2E2C27",
"e	c #2E2C28",
"f	c #302F2D",
"g	c #343434",
"h	c #7096E0",
"i	c #648EDE",
"j	c #638EDE",
"k	c #5685D3",
"l	c #4E7FD0",
"m	c #FB000C",
"n	c #FA000C",
"o	c #FC010C",
"p	c #5282D1",
"q	c #FB000B",
"r	c #FC000B",
"s	c #4889DB",
"t	c #F8000C",
"u	c #F9000B",
"v	c #FB010C",
"w	c #FF0000",
"x	c #FA0C18",
"y	c #FE000B",
"z	c #FE010C",
"A	c #FC000C",
"B	c #F8000A",
"C	c #FC0611",
"                                ",
"                                ",
"      .+@#$%&*******            ",
"     =-;>,')!========           ",
"     ~{]^/(_:~~~~~~~~           ",
"     ~{]^/(_:~~~~~~~~           ",
"     ~{]^/(_:~~~~~~~~           ",
"     ~{]^/(_:~~~~~~~~           ",
"     ~{]^/(_:~~~~~~~~           ",
"     ~{]^/(_:~~~~~~~~           ",
"     ~{]^/(_:~~~~~~~~           ",
"     ~{]^/(_:~~~~~~~~           ",
"     ~{<[}|12~~~~~~~~           ",
"     ~3456789~~~~~~~~           ",
"     ~~~~0~~~~~~~~~~~           ",
"                                ",
"        aaaaaaaaaaa             ",
"        aaaaaaaaaaa             ",
"        aaaaaaaaaaa             ",
"        aaaaaaaaaaa             ",
"        aaaaaaaaaaa             ",
"        aaaaaaaaaaa             ",
"        aaaaaaaaaaa             ",
"        aaaaaaaaaaa             ",
"        aaaaaaaaaaa             ",
"        bbbcdeefbg              ",
"            hij                 ",
"             kll            mno ",
"              pl        oqmnr   ",
"               s      tuv       ",
"               wxyzABC          ",
"                   z            "};
